**ABCDEFGHIJKLMNOPQRSTUVWXYZabcdefghijklmnopqrstuvwxyz**************************
**PARASOLID !"#$%&'()*+,-./:;<=>?@[\]^_`{|}~0123456789**************************
**PART1;
MC=AMD64;
MC_MODEL=Intel64 Family 6 Model 142 Stepping 10, GenuineIntel;
MC_ID=unknown;
OS=Windows_NT;
OS_RELEASE=unknown;
FRU=Parasolid Version 28.0, build 224,  7-29-2016;
APPL=SOLIDWORKS 2016-2016286;
SITE=;
USER=unknown;
FORMAT=text;
GUISE=transmit;
KEY=temp;
FILE=temp.x_t;
DATE=Fri Apr 20 17:52:22 2018;
**PART2;
SCH=SCH_2800224_28002;
USFLD_SIZE=0;
**PART3;
**END_OF_HEADER*****************************************************************
T51 : TRANSMIT FILE created by modeller version 280022423 SCH_2800224_28002_1300
6200 0 12 30 CCCCCCCCCCCCCDI5 owner1040 0 CCCCCCCCCA13 boundary_mesh1006 0 A16 i
ndex_map_offset0 0 1 dA9 index_map82 0 A17 node_id_index_map82 0 A20 schema_embe
dding_map82 0 A5 child12 0 A14 lowest_node_id0 0 1 dZ1 12769 0 2 3 0 0 0 1e3 1e-
8 0 4 0 1 0 1 1 5 6 7 8 9 10 11 0 0 0 0 0 0 0 70 11 CI9 list_type0 0 1 uI10 notr
ansmit0 0 1 lCCCDCCDI12 finger_index0 0 1 dI12 finger_block1012 0 CZ2 0 4 T1 0 0
 2 20 1 12 12 51 255 3 1884 0 1 13 0 0 +.010033 .0602358292956249 .1095116007794
462 -1 2072166096042545e-31 -38533559484497e-30 .0310254 1682632933319745e-34 -.
182038750584418 -.983291357271925 13 255 5 53 0 1 0 14 0 0 15 0 51 6 1340 0 16 1
7 0 18 +.049634510121414 .079628483603675 .117451184136806 -1 2072166096042545e-
31 -38533559484497e-30 .00254 1682632933319745e-34 -.182038750584418 -.983291357
271925 30 255 7 12406 0 10 19 0 0 +-.0127 .03532266782210475 .1370313713085034 2
072166096042545e-31 1 0 29 255 8 12403 0 11 20 0 -.0127 .0459648016511967 .13703
13713085034 19 8 CCCCCCCA5 owner12 0 Z9 57 0 1 15 0 21 V0 16 255 10 12404 0 ?22
 0 23 7 0 0 1 18 255 11 12401 0 24 0 25 8 ?1 17 255 24 0 26 22 27 11 28 29 0 30
 +18 25 1385 0 31 11 32 20 ?1 17 31 0 33 34 35 25 36 37 0 38 +18 32 1222 0 39 25
 40 41 ?1 29 20 1387 0 25 41 8 -.014605 .03713339885652105 .113788601224427 29 4
1 1224 0 32 42 20 -.01553772759520005 .0807576406728684 .119726399360272 29 42 1
221 0 40 43 41 -.01553772759520005 .04473096513097815 .1263960918729276 18 40 12
19 0 44 32 45 42 ?1 29 43 1143 0 45 46 42 -.023495 .0781893928785294 .1195441767
036346 18 45 1141 0 47 40 48 43 ?1 29 46 1140 0 48 49 43 -.0220133914199196 .078
1893928785265 .1195441767036326 18 48 1138 0 50 45 51 46 ?1 29 49 1129 0 51 52 4
6 -.014605 .04473096513097815 .1263960918729276 18 51 1127 0 53 48 54 49 ?1 29 5
2 1118 0 54 55 49 -.014605 .0807576406728684 .119726399360272 18 54 1116 0 56 51
 57 52 ?1 29 55 1105 0 57 58 52 -.023495 .04312046197360605 .125607538976158 18
 57 1103 0 59 54 60 55 ?1 29 58 1102 0 60 61 55 -.023495 .0819791083682872 .1184
13557877092 18 60 1100 0 62 57 63 58 ?1 29 61 1099 0 63 64 58 -.014605 .08197910
83682872 .118413557877092 18 63 1097 0 65 60 66 61 ?1 29 64 1096 0 66 67 61 -.01
4605 .04312046197360605 .125607538976158 18 66 1094 0 68 63 69 64 ?1 29 67 1088
 0 69 70 64 -.023495 .0470637645211934 .1253065282746322 18 69 1086 0 71 66 72 6
7 ?1 29 70 1085 0 72 73 67 -.02201339141991005 .0470637645211934 .12530652827463
22 18 72 1083 0 74 69 75 70 ?1 29 73 348 0 75 76 70 -.014605 .0658980984586274 .
1317247851566514 18 75 346 0 77 72 78 73 ?1 29 76 536 0 78 79 73 -.0227252679482
9595 .0624236113140235 .129700857948523 18 78 456 0 80 75 81 76 ?1 29 79 537 0 8
1 82 76 -.01553772759520005 .0629010264016626 .1322796392684326 18 81 457 0 83 7
8 84 79 ?1 29 82 538 0 84 85 79 -.023495 .0624236113140235 .129700857948523 18 8
4 460 0 86 81 87 82 ?1 29 85 539 0 87 88 82 -.02272526794829595 .065420683370988
3 .1291460038367418 18 87 448 0 89 84 90 85 ?1 29 88 540 0 90 91 85 -.0155377275
9520005 .0658980984586274 .1317247851566514 18 90 449 0 92 87 93 88 ?1 29 91 541
 0 93 94 88 -.023495 .0654206833709883 .1291460038367418 18 93 446 0 95 90 96 91
 ?1 29 94 545 0 96 97 91 -.014605 .0629010264016626 .1322796392684326 18 96 458
 0 98 93 99 94 ?1 29 97 546 0 99 100 94 -.014605 .062968055869475 .1326417022696
936 18 99 463 0 101 96 102 97 ?1 29 100 548 0 102 103 97 -.014605 .0659651279264
398 .1320868481579122 18 102 462 0 104 99 105 100 ?1 29 103 550 0 105 106 100 -.
023495 .062968055869475 .1326417022696936 18 105 461 0 107 102 108 103 ?1 29 106
 553 0 108 109 103 -.023495 .0659651279264398 .1320868481579122 18 108 455 0 110
 105 111 106 ?1 29 109 834 0 111 112 106 -.02272526794829595 .0472112061269906 .
125092091353052 18 111 732 0 113 108 114 109 ?1 29 112 835 0 114 115 109 -.02272
526794829595 .0779749559569493 .1193967350978376 18 114 724 0 116 111 117 112 ?1
 29 115 842 0 117 118 112 -.023495 .0472112061269906 .125092091353052 18 117 733
 0 119 114 120 115 ?1 29 118 845 0 120 121 115 -.023495 .0779749559569493 .11939
67350978376 18 120 731 0 122 117 123 118 ?1 29 121 1553 0 123 124 118 -.023495 .
03713339885652105 .113788601224427 18 123 1469 0 125 120 126 121 ?1 29 124 1554
 0 126 127 121 -.023495 .0833382597347288 .1052346003344652 18 126 1477 0 128 12
3 129 124 ?1 29 127 1557 0 129 130 124 -.023495 .0826446920950022 .1014882602632
592 18 129 1471 0 131 126 132 127 ?1 29 130 1558 0 132 133 127 -.023495 .0364398
312167944 .110042261153221 18 132 1474 0 134 129 135 130 ?1 29 133 1559 0 135 13
6 130 -.014605 .0826446920950022 .1014882602632592 18 135 1473 0 137 132 138 133
 ?1 29 136 1560 0 138 139 133 -.014605 .0833382597347288 .1052346003344652 18 13
8 1478 0 140 135 141 136 ?1 29 139 1562 0 141 142 136 -.014605 .0364398312167944
 .110042261153221 18 141 1475 0 143 138 144 139 ?1 29 142 12530 0 144 145 139 -.
0127 .0745068569400531 .1370313713085034 18 144 12474 0 22 141 146 142 ?1 29 145
 12532 0 146 147 142 -.023495 .0745068569400531 .1370313713085034 18 146 12477 0
 148 144 149 145 ?1 29 147 12533 0 149 0 145 -.023495 .0459648016511967 .1370313
713085034 18 149 12466 0 27 146 0 147 ?1 17 27 0 26 24 148 149 150 151 0 28 -15
 255 26 12496 0 24 152 0 17 148 0 26 27 22 146 153 154 0 150 +17 150 0 155 156 1
56 146 27 151 0 157 +16 151 12446 0 ?150 154 0 158 0 0 1 17 28 0 159 157 160 149
 24 29 0 156 -15 159 12423 0 28 14 161 17 157 0 159 153 28 146 156 162 0 0 -17 1
60 0 159 28 153 11 163 164 0 0 +16 29 12431 0 ?24 165 154 166 0 0 1 17 156 0 155
 150 150 149 157 162 0 0 +15 155 12416 0 150 167 168 16 162 12413 0 ?156 169 170
 171 0 0 1 16 169 354 0 ?172 173 162 174 0 0 1 16 170 180 0 ?175 162 176 177 0 0
 1 31 255 171 107 0 162 177 178 0 +-.023495 .0602358292956249 .1095116007794462
 -1 2072166096042545e-31 -38533559484497e-30 1682632933319745e-34 -.182038750584
418 -.983291357271925 .031 31 177 199 0 170 179 171 0 --.008509 .060235829295624
9 .1095116007794462 1 -2072166096042545e-31 38533559484497e-30 -1682632933319745
e-34 .182038750584418 .983291357271925 .0235 31 178 267 0 176 171 174 0 --.02349
5 .0602358292956249 .1095116007794462 -1 2072166096042545e-31 -38533559484497e-3
0 1682632933319745e-34 -.182038750584418 -.983291357271925 .02030744925388585 16
 176 374 0 ?180 170 181 178 181 181 1 30 174 355 0 169 178 182 0 +.010033 .06589
80984586274 .1317247851566514 1 -2072166096042545e-31 38533559484497e-30 30 182
 358 0 173 174 183 0 -.010033 .0629010264016626 .1322796392684326 1 -20721660960
42545e-31 38533559484497e-30 16 173 356 0 ?83 184 169 182 0 0 1 30 183 1091 0 18
4 182 185 0 --.023495 .0470637645211934 .1253065282746322 1 -2072166096042545e-3
1 38533559484497e-30 16 184 1089 0 ?186 187 173 183 0 0 1 30 185 1108 0 187 183
 188 0 +.049634510121414 .0819791083682871 .118413557877092 -1 2072166096042545e
-31 -38533559484497e-30 16 187 1106 0 ?189 190 184 185 0 0 1 30 188 1113 0 190 1
85 191 0 -.049634510121414 .04312046197360605 .125607538976158 -1 20721660960425
45e-31 -38533559484497e-30 16 190 1111 0 ?68 192 187 188 0 0 1 31 191 1119 0 192
 188 193 0 +-.014605 .079628483603675 .117451184136806 -1 2072166096042545e-31 -
38533559484497e-30 1682632933319745e-34 -.182038750584418 -.983291357271925 .002
54 16 192 1117 0 ?194 195 190 191 0 0 1 31 193 1130 0 195 191 196 0 +-.014605 .0
4497077195436485 .1238674375494864 -1 2072166096042545e-31 -38533559484497e-30 1
682632933319745e-34 -.182038750584418 -.983291357271925 .00254 16 195 1128 0 ?19
7 198 192 193 0 0 1 30 196 1146 0 198 193 199 0 +-.014605 .0781893928785294 .119
5441767036346 1 -2072166096042545e-31 38533559484497e-30 16 198 1144 0 ?50 200 1
95 196 0 0 1 31 199 1271 0 200 196 201 0 --.023495 .04497077195436485 .123867437
5494864 -1 2072166096042545e-31 -38533559484497e-30 1682632933319745e-34 -.18203
8750584418 -.983291357271925 .00254 16 200 1149 0 ?202 203 198 199 0 0 1 30 201
 1272 0 203 199 204 0 --.014605 .04473096513097815 .1263960918729276 1 -20721660
96042545e-31 38533559484497e-30 16 203 1153 0 ?205 206 200 201 0 0 1 38 255 204
 1273 0 206 201 207 0 +17 208 209 210 211 16 206 1157 0 ?74 212 203 204 0 0 1 31
 207 1274 0 212 204 213 0 --.023495 .079628483603675 .117451184136806 -1 2072166
096042545e-31 -38533559484497e-30 1682632933319745e-34 -.182038750584418 -.98329
1357271925 .00254 51 17 1313 0 214 215 6 216 +.049634510121414 .0449707719543648
5 .1238674375494864 -1 2072166096042545e-31 -38533559484497e-30 .00254 168263293
3319745e-34 -.182038750584418 -.983291357271925 52 255 208 316 0 217 218 219 220
 --.02272526794829595 .0602358292956249 .1095116007794462 1 -2072166096042545e-3
1 38533559484497e-30 .02030744925388585 .3420201433256725 .939692620785907 -1682
632933319745e-34 .182038750584418 .983291357271925 40 255 3 209 0 1 3 .000617049
474811851 .3026916843696575 ??-.01553772759520005 .04473096513097815 .1263960918
729276 -.0187347465869703 .0461644666176951 .1261094663295732 -.0220133914199100
5 .0470637645211934 .1253065282746322 41 3 CI8 term_use0 0 1 cCZ1 210 L?-.015537
72759520005 .04473096513097815 .1263960918729276 41 1 211 L?-.02201339141991005
 .0470637645211934 .1253065282746322 14 255 217 296 221 ?222 223 224 5 208 +225
 225 222 223 21 51 218 317 0 222 226 208 0 -.010033 .0602358292956249 .109511600
7794462 1 -2072166096042545e-31 38533559484497e-30 .0229235 -1682632933319745e-3
4 .182038750584418 .983291357271925 51 219 315 0 223 208 227 0 -.010033 .0602358
292956249 .1095116007794462 1 -2072166096042545e-31 38533559484497e-30 .02030744
925388585 -1682632933319745e-34 .182038750584418 .983291357271925 141 255 220 22
8 229 230 208 38 228 521 0 231 232 233 0 +208 234 235 236 237 141 229 213 238 22
0 208 141 230 239 220 240 208 38 239 519 0 241 233 242 0 +208 243 244 245 246 14
1 240 247 230 248 208 38 247 809 0 249 250 251 0 +208 252 253 254 255 141 248 25
1 240 238 208 38 251 808 0 256 247 257 0 +208 258 259 260 261 141 238 204 248 22
9 208 16 256 670 0 ?262 263 249 251 0 0 1 30 257 534 0 264 251 265 0 +-.014605 .
062968055869475 .1326417022696936 16826329333194e-32 -.182038750584418 -.9832913
57271925 50 255 258 804 0 266 267 268 269 +.049634510121414 .0472112061269906 .1
25092091353052 1489171399858826e-31 .824012821586066 .566571151632141 1491551002
17365e-30 .566571151632141 -.824012821586066 40 2 259 0 1 2 1249113721193032e-21
 .0003076979185376665 ??-.02272546794829595 .0472112475526725 .1250920311041444
 -.01553752759520005 .0457231743971934 .127256263003422 41 1 260 L?-.02272546794
829595 .0472112475526725 .1250920311041444 41 1 261 L?-.01553752759520005 .04572
31743971934 .127256263003422 14 266 780 270 ?271 272 273 5 258 -0 0 271 272 21 5
1 267 1050 0 274 275 258 276 +-.019431 .054592628027508 .0790295687040165 168263
2933319745e-34 -.182038750584418 -.983291357271925 .00165 -210768902331182e-30 -
.983291357271925 .182038750584418 51 268 803 0 271 258 252 0 +.049634510121414 .
0602358292956249 .1095116007794462 -1 2072166096042545e-31 -38533559484497e-30 .
023495 1682632933319745e-34 -.182038750584418 -.983291357271925 141 269 251 269
 269 258 14 271 784 277 ?278 266 279 5 268 -280 280 278 266 21 50 252 802 0 278
 268 243 281 +.049634510121414 .0779749559569493 .1193967350978376 -149155100217
3646e-31 -.566571151632138 .824012821586068 1489171399858832e-31 .82401282158606
8 .566571151632138 14 278 788 282 ?214 271 283 5 252 -0 0 214 271 21 50 243 514
 0 284 252 234 285 +-.003435069535730385 .062968055869475 .1326417022696936 -210
768902331182e-30 -.983291357271925 .182038750584418 -16826329333194e-32 .1820387
50584418 .983291357271925 141 281 247 281 281 252 14 284 489 286 ?272 287 288 5
 243 -0 0 272 287 21 50 234 512 0 272 243 289 290 +-.003435069535730385 .0659651
279264398 .1320868481579122 210768902331182e-30 .983291357271925 -.1820387505844
18 16826329333195e-32 -.182038750584418 -.983291357271925 141 285 239 285 285 24
3 14 272 497 291 ?266 284 292 5 234 -0 0 266 284 21 51 289 511 0 287 234 226 0 +
-.003435069535730385 .0644665918979574 .132364275213803 -1 2072166096042545e-31
 -38533559484497e-30 .001524 1682632933319745e-34 -.182038750584418 -.9832913572
71925 141 290 228 290 290 234 14 287 485 293 ?284 222 294 5 289 -0 0 284 222 21
 50 226 318 0 295 289 218 0 +-.014605 .0827763087240479 .1053386354804242 -1 207
2166096042545e-31 -38533559484497e-30 1682632933319745e-34 -.182038750584418 -.9
83291357271925 14 295 284 296 ?223 297 298 5 226 +0 0 223 297 21 81 255 1 296 12
746 299 295 300 0 293 301 302 14 223 292 301 ?217 295 303 5 219 +304 304 217 295
 21 14 297 189 305 ?295 306 307 5 227 +0 0 295 306 21 15 298 1788 0 308 295 33 1
3 21 56 0 0 0 0 0 0 9 14 14 14 7315 309 ?310 0 159 5 215 +0 0 310 0 21 81 1 309
 12749 299 14 311 0 305 312 313 14 310 1724 312 ?314 14 315 5 316 +0 0 314 14 21
 51 215 106 0 14 316 17 317 +.010033 .0602358292956249 .1095116007794462 -1 2072
166096042545e-31 -38533559484497e-30 .031 1682632933319745e-34 -.182038750584418
 -.983291357271925 51 316 104 0 310 318 215 0 +.010033 .0602358292956249 .109511
6007794462 -1 2072166096042545e-31 -38533559484497e-30 .0253365 1682632933319745
e-34 -.182038750584418 -.983291357271925 141 317 319 317 317 215 38 319 1063 0 3
20 321 322 0 +215 267 323 324 324 16 320 1005 0 ?325 326 327 319 0 0 1 30 321 15
36 0 327 328 319 0 +-.023495 .0314901975884041 .0833065691489974 168263293331974
5e-34 -.182038750584418 -.983291357271925 31 322 827 0 329 319 330 0 --.014605 .
0602358292956249 .1095116007794462 -1 2072166096042545e-31 -38533559484497e-30 1
682632933319745e-34 -.182038750584418 -.983291357271925 .023495 40 20 323 0 1 20
 931901978050746e-19 .337794857077714 ??-.017781 .054592628027508 .0790295687040
165 -.0178738590234805 .0540568992478973 .0791336346943824 -.01814189875894165 .
05358304005456 .0792338796744163 -.01855534269931845 .0532232676149466 .07931517
75032586 -.0190678683947129 .0530175877599043 .0793636822918956 -.01962092755110
265 .0529888747029975 .079370571448443 -.02015202994547925 .0531397752812091 .07
93346887865916 -.02060219773596295 .0534537774776141 .0792625714869579 -.0209209
1443348445 .0538969685407946 .0791666037563639 -.02107162473524355 .054420010323
7028 .0790620318221386 -.02103737907681725 .0549636380330047 .0789632129448918 -
.0208225275873952 .0554667735319775 .0788806343055783 -.0204509056738104 .055872
9300949592 .078820150657876 -.01996387606839515 .0561352839840439 .0787839987228
641 -.01941690745341515 .0562229982316359 .0787724207830331 -.01887218412945465
 .0561262590325101 .0787852044360329 -.01839040718362465 .0558565436608617 .0788
224845111475 -.0180252866291442 .0554443690618098 .0788841309389947 -.0178184878
5227395 .0549368644878773 .0789678457390741 -.017781 .054592628027508 .079029568
7040165 41 1 324 H?-.017781 .054592628027508 .0790295687040165 16 329 1095 0 ?33
1 249 332 322 332 332 1 30 330 824 0 326 322 333 0 +-.023495 .0779749559569493 .
1193967350978376 1489171399858832e-31 .824012821586068 .566571151632138 16 326 7
09 0 ?334 335 320 330 0 0 1 31 333 823 0 336 330 337 0 +-.023495 .06023582929562
49 .1095116007794462 -1 2072166096042545e-31 -38533559484497e-30 168263293331974
5e-34 -.182038750584418 -.983291357271925 .023495 16 336 1101 0 ?338 339 335 333
 335 335 1 30 337 822 0 339 333 340 0 +-.023495 .0472112061269906 .1250920913530
52 149155100217365e-30 .566571151632141 -.824012821586066 16 339 1087 0 ?119 341
 336 337 0 0 1 30 340 820 0 342 337 250 0 +.049634510121414 .0472112061269906 .1
25092091353052 -1 2072166096042545e-31 -38533559484497e-30 16 342 706 0 ?343 332
 341 340 0 0 1 30 250 817 0 341 340 247 0 +.049634510121414 .0779749559569493 .1
193967350978376 -1 2072166096042545e-31 -38533559484497e-30 16 341 704 0 ?122 34
2 339 250 0 0 1 17 122 0 283 334 116 120 344 341 0 345 +15 283 791 0 334 278 0 1
7 334 0 283 50 122 45 345 326 0 346 +17 116 0 283 122 50 114 347 249 0 344 +17 3
44 0 303 89 348 114 122 341 0 349 -17 345 0 168 95 47 120 334 326 0 348 -15 168
 664 0 350 167 0 17 95 0 168 351 345 93 348 181 0 352 +17 47 0 168 345 353 45 62
 212 0 334 +17 348 0 303 344 354 120 95 181 0 0 -15 303 632 0 344 223 0 17 354 0
 303 348 89 93 355 356 0 0 -16 181 629 0 ?95 176 357 178 176 176 1 16 357 276 0
 ?358 181 359 179 359 359 1 17 358 0 360 343 361 111 362 357 0 0 +16 359 615 0 ?
89 357 363 179 357 357 1 31 179 321 0 357 364 177 0 +-.02272526794829595 .060235
8292956249 .1095116007794462 1 -2072166096042545e-31 38533559484497e-30 -1682632
933319745e-34 .182038750584418 .983291357271925 .02030744925388585 31 364 322 0
 363 365 179 0 +-.01553772759520005 .0602358292956249 .1095116007794462 1 -20721
66096042545e-31 38533559484497e-30 -1682632933319745e-34 .182038750584418 .98329
1357271925 .0229235 16 363 277 0 ?44 359 366 364 366 366 1 31 365 323 0 367 242
 364 0 +-.014605 .0602358292956249 .1095116007794462 1 -2072166096042545e-31 385
33559484497e-30 -1682632933319745e-34 .182038750584418 .983291357271925 .0229235
 16 367 273 0 ?53 366 368 365 368 368 1 30 242 518 0 369 239 365 0 -.010033 .062
4236113140235 .129700857948523 1 -2072166096042545e-31 38533559484497e-30 16 369
 418 0 ?86 368 241 242 0 0 1 17 86 0 288 107 80 84 361 369 0 370 +16 368 593 0 ?
77 367 369 365 367 367 1 16 241 417 0 ?80 369 356 239 0 0 1 17 80 0 288 86 83 78
 371 241 0 361 +16 356 420 0 ?355 241 231 233 0 0 1 17 355 0 292 372 352 87 354
 356 0 373 +16 231 421 0 ?372 356 374 228 0 0 1 30 233 520 0 356 228 239 0 +.010
033 .0654206833709883 .1291460038367418 1 -2072166096042545e-31 38533559484497e-
30 17 372 0 292 172 355 90 373 231 0 375 +16 374 444 0 ?104 231 376 232 0 0 1 17
 104 0 292 110 172 102 377 374 0 378 +16 376 445 0 ?101 374 264 265 0 0 1 30 232
 524 0 374 379 228 0 +-.014605 .0659651279264398 .1320868481579122 -168263293331
95e-32 .182038750584418 .983291357271925 30 379 525 0 380 381 232 0 +-.003435069
535730385 .0659651279264398 .1320868481579122 -1 2072166096042545e-31 -385335594
84497e-30 16 380 430 0 ?110 382 383 379 0 0 1 30 381 528 0 382 384 379 0 +-.0034
35069535730385 .062968055869475 .1326417022696936 -1 2072166096042545e-31 -38533
559484497e-30 16 382 431 0 ?385 264 380 381 0 0 1 30 384 529 0 383 386 381 0 +-.
023495 .062968055869475 .1326417022696936 -16826329333194e-32 .182038750584418 .
983291357271925 16 383 433 0 ?107 380 387 384 0 0 1 30 386 531 0 387 388 384 0 +
-.023495 .0659651279264398 .1320868481579122 16826329333195e-32 -.18203875058441
8 -.983291357271925 16 387 439 0 ?352 383 263 386 0 0 1 31 388 532 0 263 265 386
 0 +-.023495 .0644665918979574 .132364275213803 -1 2072166096042545e-31 -3853355
9484497e-30 1682632933319745e-34 -.182038750584418 -.983291357271925 .001524 16
 263 436 0 ?389 387 256 388 0 0 1 31 265 533 0 376 257 388 0 --.014605 .06446659
18979574 .132364275213803 -1 2072166096042545e-31 -38533559484497e-30 1682632933
319745e-34 -.182038750584418 -.983291357271925 .001524 17 389 0 294 390 385 108
 391 263 0 351 +15 294 488 0 101 287 0 17 390 0 294 101 389 102 110 380 0 0 -17
 385 0 294 389 101 105 392 382 0 391 +17 391 0 168 370 351 105 389 263 0 0 -17 3
51 0 168 391 95 108 352 387 0 0 -17 352 0 292 355 110 93 351 387 0 354 +15 292 5
00 0 355 272 0 17 110 0 292 352 104 108 390 380 0 389 +17 370 0 168 180 391 84 1
07 383 0 393 -17 180 0 168 394 370 117 393 176 0 0 +17 107 0 288 392 86 105 370
 383 0 385 +17 393 0 360 361 343 84 180 176 0 0 -15 360 637 0 343 304 0 17 361 0
 360 358 393 78 86 369 0 362 -17 343 0 360 393 358 117 113 342 0 180 +17 113 0 2
73 262 119 111 343 342 0 395 -15 273 783 0 262 266 0 17 262 0 273 186 113 72 395
 256 0 396 +17 119 0 273 113 186 117 394 339 0 343 +17 395 0 397 362 74 111 262
 256 0 358 -15 397 622 0 395 225 0 17 362 0 397 371 395 78 358 357 0 0 -17 74 0
 397 395 44 72 398 206 0 262 +17 44 0 397 74 371 40 399 363 0 205 +17 398 0 400
 401 396 40 74 206 0 0 -15 400 1298 0 402 214 0 17 401 0 400 402 398 51 205 203
 0 0 -17 396 0 400 398 71 72 186 184 0 0 -17 71 0 400 396 403 69 202 200 0 186 -
17 186 0 273 119 262 69 396 184 0 394 +17 394 0 168 202 180 69 119 339 0 0 -17 2
02 0 168 350 394 57 71 200 0 403 +17 350 0 168 404 202 123 59 335 0 0 -17 403 0
 400 71 402 57 68 190 0 0 -17 402 0 400 403 401 66 197 195 0 0 -17 68 0 405 331
 59 66 403 190 0 34 +15 405 1397 0 406 280 0 17 331 0 405 406 68 25 34 329 0 0 +
17 59 0 405 68 406 57 350 335 0 202 +17 34 0 33 197 31 66 331 329 0 402 -15 33 1
409 0 407 295 0 17 197 0 33 408 34 51 402 195 0 401 +17 408 0 33 409 197 96 53 3
67 0 0 -17 409 0 33 378 408 99 98 264 0 392 -17 53 0 410 205 411 51 408 367 0 19
7 +15 410 607 0 53 306 0 17 205 0 410 399 53 40 401 203 0 398 +17 411 0 410 53 3
99 96 83 173 0 408 -17 399 0 410 411 205 81 44 363 0 0 -17 83 0 288 80 98 81 411
 173 0 371 +15 288 492 0 86 284 0 17 98 0 288 83 392 96 409 264 0 411 +17 371 0
 397 44 362 81 80 241 0 399 -17 392 0 288 98 107 99 385 382 0 0 -16 264 442 0 ?9
8 376 382 257 0 0 1 14 306 604 412 ?297 225 410 5 218 +222 222 297 225 21 81 1 4
12 12751 299 306 413 0 312 414 415 14 225 619 414 ?306 304 397 5 208 +217 217 30
6 304 21 14 222 300 416 ?287 217 417 5 218 +306 306 287 217 21 81 1 416 12753 29
9 222 418 0 414 419 420 15 417 602 0 39 222 0 17 39 0 417 421 375 32 92 366 0 42
2 -17 421 0 417 77 39 54 423 424 0 425 +17 375 0 417 39 77 90 172 169 0 0 -17 92
 0 224 373 422 90 39 366 0 372 +16 366 599 0 ?92 363 367 364 363 363 1 17 422 0
 224 92 347 32 426 427 0 423 +15 224 618 0 347 217 0 17 347 0 224 422 349 48 116
 249 0 426 -17 426 0 428 346 423 48 422 427 0 0 -16 427 1165 0 ?422 424 212 213
 0 0 1 17 423 0 428 426 425 32 421 424 0 0 -15 428 1325 0 426 16 0 17 425 0 428
 423 429 54 194 192 0 0 -16 424 1169 0 ?421 430 427 431 0 0 1 16 430 1391 0 ?432
 23 424 433 0 0 1 30 431 1276 0 424 213 434 0 +-.01553772759520005 .080757640672
8684 .119726399360272 1 -2072166096042545e-31 38533559484497e-30 38 213 1275 0 4
27 207 431 0 +6 208 435 436 437 38 434 1376 0 438 431 433 0 +267 275 439 440 440
 16 438 1434 0 ?441 442 443 434 0 0 1 30 433 1393 0 430 434 444 0 -.049634510121
414 .0833382597347288 .1052346003344652 -1 2072166096042545e-31 -38533559484497e
-30 51 275 1530 0 445 446 267 447 --.029845 .0595422616558983 .1057652607082402
 1 -2072166096042545e-31 38533559484497e-30 .023495 -1682632933319745e-34 .18203
8750584418 .983291357271925 40 20 439 0 1 20 93323635420063e-18 .338112321011578
5 ??-.019431 .0536533904432608 .0830202344202587 -.01997639586645535 .0537434306
929962 .0829971122445708 -.02046029284047445 .0540036607393511 .0829324132097957
 -.02082899142471345 .0544064572585867 .0828384524220317 -.02104038950715605 .05
49080323921659 .0827318296973993 -.02107012885678645 .0554513343597542 .08262915
60478254 -.0209157436812816 .0559749898652107 .0825426511009767 -.02059457677765
445 .0564208866304167 .08247852536491 -.02014164165048505 .0567381025323894 .082
4382009575977 -.01960831728243515 .0568887341052515 .0824205864432615 -.01905606
048368155 .0568552627361483 .0824244153549702 -.01854657161897535 .0566424519613
892 .0824498982033244 -.018135780109135 .056274437563489 .0824986247094313 -.017
87031132075905 .0557929161132192 .0825713513137118 -.01778103910468955 .05525409
17657022 .0826649008843583 -.01787742475233885 .0547199533042688 .08277047070785
52 -.018148118637528 .0542491231548497 .082874264447511 -.01856369482286175 .053
8926870153044 .0829596181744206 -.01907766363582875 .0536905423351272 .083010647
8574155 -.019431 .0536533904432608 .0830202344202587 41 1 440 H?-.019431 .053653
3904432608 .0830202344202587 14 445 1501 419 ?448 16 449 5 275 +0 0 448 16 21 50
 446 1531 0 448 450 275 0 +-.029845 .0364398312167944 .110042261153221 210768902
331182e-30 .983291357271925 -.182038750584418 1682632933319745e-34 -.18203875058
4418 -.983291357271925 141 447 434 447 447 275 14 448 1510 451 ?452 445 453 5 44
6 +0 0 452 445 21 50 450 1533 0 452 454 446 0 +-.029845 .0826446920950022 .10148
82602632592 -210768902331182e-30 -.983291357271925 .182038750584418 -16826329333
19745e-34 .182038750584418 .983291357271925 14 452 1518 455 ?456 448 457 5 450 +
0 0 456 448 21 50 454 1639 0 456 458 450 0 +-.0127 .03532266782210475 .114123825
5836282 1 -2072166096042545e-31 38533559484497e-30 -1682632933319745e-34 .182038
750584418 .983291357271925 14 456 1630 459 ?460 452 461 5 454 +0 0 460 452 21 50
 458 1705 0 460 462 454 0 +520417042793042e-32 .03532266782210475 .1141238255836
282 1 -2072166096042545e-31 38533559484497e-30 -1682632933319745e-34 .1820387505
84418 .983291357271925 14 460 1686 463 ?464 456 465 5 458 +0 0 464 456 21 50 462
 1750 0 464 466 458 0 +-.011811 .03532266782210475 .1141238255836282 1 -20721660
96042545e-31 38533559484497e-30 -1682632933319745e-34 .182038750584418 .98329135
7271925 14 464 1732 467 ?468 460 469 5 462 -0 0 468 460 21 51 466 1831 0 468 470
 462 0 +-.006985 .0602358292956249 .1095116007794462 -1 2072166096042545e-31 -38
533559484497e-30 .0200025 1682632933319745e-34 -.182038750584418 -.9832913572719
25 14 468 1818 471 ?152 464 472 5 466 -0 0 152 464 21 50 470 12511 0 152 0 466 0
 +-.023495 .0894273440012228 .1370313713085034 0 0 -1 -1 0 0 14 152 12493 473 ?0
 468 26 5 470 -0 0 0 468 21 81 1 473 12761 299 152 474 0 471 475 476 80 255 1 29
9 477 478 9000 1 1 1 1 1 1 1 1 0 FFFFTFTFFFFFFF1 81 1 474 12674 479 152 0 473 48
0 0 481 81 1 471 12760 299 468 480 0 467 473 482 81 1 475 12762 299 16 483 0 473
 484 485 82 255 1 476 -1875574637 14 16 1324 475 ?445 214 428 5 6 -0 0 445 214 2
1 81 1 483 9308 479 16 0 475 486 487 488 81 1 484 12763 299 214 486 0 475 489 49
0 82 1 485 541524082 14 214 1297 484 ?16 278 400 5 17 -0 0 16 278 21 81 1 486 93
07 479 214 0 484 491 483 492 81 1 489 12764 299 304 493 0 484 494 495 82 1 490 5
41786226 14 304 634 489 ?225 274 360 5 219 +223 223 225 274 21 81 1 493 9293 479
 304 0 489 496 497 498 81 1 494 12765 299 274 496 0 489 499 500 82 1 495 5438178
42 14 274 1377 494 ?304 280 501 5 267 -0 0 304 280 21 81 1 496 9292 479 274 0 49
4 502 493 503 81 1 499 12766 299 280 502 0 494 504 505 82 1 500 540737650 14 280
 1399 499 ?274 167 405 5 268 -271 271 274 167 21 81 1 502 9291 479 280 0 499 506
 496 507 81 1 504 12767 299 167 506 0 499 508 509 82 1 505 540999794 14 167 1422
 504 ?280 510 155 5 511 +0 0 280 510 21 81 1 506 9290 479 167 0 504 512 502 513
 81 1 508 12768 299 510 512 0 504 514 515 82 1 509 -2032467821 14 510 1667 508 ?
167 314 516 5 517 -0 0 167 314 21 81 1 512 9289 479 510 0 508 518 506 519 81 1 5
14 12769 299 314 518 0 508 0 520 82 1 515 539426930 14 314 1673 514 ?510 310 521
 5 318 +0 0 510 310 21 81 1 518 9288 479 314 0 514 522 512 523 82 1 520 53870603
4 80 1 479 0 524 8001 0 0 0 0 3 5 0 0 0 FFFFTFTFFFFFFF2 81 1 522 9287 479 310 0
 312 311 518 525 83 255 3 523 .250980392156863 .250980392156863 .250980392156863
 81 1 312 12750 299 310 522 0 309 412 526 81 1 311 9275 479 14 0 309 0 522 527 8
3 3 525 .250980392156863 .250980392156863 .250980392156863 83 3 527 .25098039215
6863 .250980392156863 .250980392156863 82 1 526 452329586 79 255 15 524 SDL/TYSA
_COLOUR15 521 1670 0 528 314 529 51 318 102 0 314 511 316 0 +.010033 .0602358292
956249 .1095116007794462 -1 2072166096042545e-31 -38533559484497e-30 .0258445 16
82632933319745e-34 -.182038750584418 -.983291357271925 50 511 100 0 167 517 318
 0 +-.023495 .054592628027508 .0790295687040165 -1 2072166096042545e-31 -3853355
9484497e-30 1682632933319745e-34 -.182038750584418 -.983291357271925 51 517 196
 0 510 227 511 0 +-.0749770374315355 .0602358292956249 .1095116007794462 1 -2072
166096042545e-31 38533559484497e-30 .0235 -1682632933319745e-34 .182038750584418
 .983291357271925 50 227 198 0 297 219 517 0 +-.008509 .054592628027508 .0790295
687040165 1 -2072166096042545e-31 38533559484497e-30 -1682632933319745e-34 .1820
38750584418 .983291357271925 17 528 0 521 528 528 0 530 531 0 0 +15 529 1739 0 5
32 314 0 17 532 0 529 532 532 0 533 534 0 0 +17 533 0 469 533 533 0 532 534 0 0
 -16 534 1729 0 ?532 531 535 536 0 0 1 16 531 1680 0 ?528 537 534 538 0 0 1 16 5
35 1728 0 ?539 534 540 541 0 0 1 31 536 1754 0 534 541 538 0 +-.011811 .06023582
92956249 .1095116007794462 1 -2072166096042545e-31 38533559484497e-30 -168263293
3319745e-34 .182038750584418 .983291357271925 .0258445 31 541 1757 0 535 542 536
 0 +-.011811 .0602358292956249 .1095116007794462 1 -2072166096042545e-31 3853355
9484497e-30 -1682632933319745e-34 .182038750584418 .983291357271925 .0253365 31
 538 1707 0 531 536 543 0 -1387778780781446e-32 .0602358292956249 .1095116007794
462 1 -2072166096042545e-31 38533559484497e-30 -1682632933319745e-34 .1820387505
84418 .983291357271925 .0258445 31 543 1643 0 544 538 545 0 +-.0127 .06023582929
56249 .1095116007794462 1 -2072166096042545e-31 38533559484497e-30 -168263293331
9745e-34 .182038750584418 .983291357271925 .0253365 16 544 1609 0 ?546 164 537 5
43 0 0 1 31 545 1548 0 547 543 548 0 +-.014605 .0595422616558983 .10576526070824
02 -1 2072166096042545e-31 -38533559484497e-30 1682632933319745e-34 -.1820387505
84418 -.983291357271925 .023495 16 547 1431 0 ?35 37 164 545 0 0 1 30 548 1547 0
 37 545 549 0 +-.014605 .0364398312167944 .110042261153221 -1682632933319745e-34
 .182038750584418 .983291357271925 16 37 1437 0 ?31 550 547 548 0 0 1 30 549 154
5 0 550 548 551 0 +-.014605 .0826446920950022 .1014882602632592 1682632933319745
e-34 -.182038750584418 -.983291357271925 16 550 1453 0 ?552 553 37 549 0 0 1 30
 551 1544 0 553 549 554 0 +-.029845 .0826446920950022 .1014882602632592 1 -20721
66096042545e-31 38533559484497e-30 16 553 1430 0 ?137 443 550 551 0 0 1 30 554 1
541 0 443 551 555 0 +-.029845 .0364398312167944 .110042261153221 1 -207216609604
2545e-31 38533559484497e-30 16 443 1436 0 ?143 438 553 554 0 0 1 31 555 1540 0 4
42 554 328 0 --.023495 .0595422616558983 .1057652607082402 -1 2072166096042545e-
31 -38533559484497e-30 1682632933319745e-34 -.182038750584418 -.983291357271925
 .023495 16 442 1429 0 ?556 557 438 555 0 0 1 30 328 1537 0 557 555 321 0 +-.023
495 .0776950584666118 .0747525682590356 -1682632933319745e-34 .182038750584418 .
983291357271925 16 557 1451 0 ?558 327 442 328 0 0 1 17 558 0 168 353 556 126 13
1 557 0 338 +16 327 1435 0 ?404 320 557 321 0 0 1 17 404 0 168 556 350 132 125 3
27 0 0 +17 556 0 168 558 404 129 134 442 0 0 +17 125 0 453 38 559 123 404 327 0
 406 -15 453 1513 0 38 448 0 17 38 0 453 36 125 25 406 23 0 331 +17 559 0 453 12
5 36 132 143 443 0 404 -17 406 0 405 59 331 123 38 23 0 350 -16 23 1396 0 ?38 10
 430 444 0 0 1 30 444 1398 0 23 433 560 0 -.049634510121414 .037133398856521 .11
3788601224427 -1 2072166096042545e-31 -38533559484497e-30 31 560 1599 0 164 444
 19 0 --.0127 .0602358292956249 .1095116007794462 1 -2072166096042545e-31 385335
59484497e-30 -1682632933319745e-34 .182038750584418 .983291357271925 .031 16 164
 1608 0 ?160 547 544 560 0 0 1 31 19 1666 0 537 560 7 0 -1387778780781446e-32 .0
602358292956249 .1095116007794462 1 -2072166096042545e-31 38533559484497e-30 -16
82632933319745e-34 .182038750584418 .983291357271925 .0235 16 537 1681 0 ?561 54
4 531 19 0 0 1 17 561 0 562 561 561 0 563 537 0 0 +15 562 1689 0 561 460 0 17 56
3 0 564 563 563 0 561 537 0 0 -15 564 1665 0 563 510 0 17 36 0 453 559 38 141 31
 37 0 35 -17 143 0 449 565 134 141 559 443 0 36 +15 449 1504 0 143 445 566 17 56
5 0 449 567 143 135 35 547 0 0 -17 134 0 449 143 567 132 556 442 0 559 -17 567 0
 449 134 565 129 137 553 0 556 -17 137 0 457 140 131 135 567 553 0 552 +15 457 1
521 0 137 452 0 17 140 0 457 128 137 138 552 550 0 432 -17 131 0 457 137 128 129
 558 557 0 567 -17 552 0 33 35 407 135 140 550 0 565 +17 35 0 33 31 552 141 565
 547 0 0 +17 407 0 33 552 194 138 65 332 0 0 -17 194 0 33 407 56 63 425 192 0 42
9 +17 65 0 279 189 432 63 407 332 0 194 +16 332 1389 0 ?65 329 342 322 329 329 1
 15 279 787 0 338 271 0 17 189 0 279 338 65 60 429 187 0 353 +17 432 0 279 65 33
8 138 128 430 0 407 +17 338 0 279 432 189 126 353 336 0 0 +17 128 0 457 131 140
 126 432 430 0 558 -17 353 0 168 47 558 60 338 336 0 0 -17 429 0 428 425 62 63 1
89 187 0 0 -17 62 0 428 429 346 60 47 212 0 189 -17 346 0 428 62 426 45 50 198 0
 0 -16 212 1161 0 ?47 427 206 207 0 0 1 17 50 0 283 116 334 48 346 198 0 347 +17
 56 0 33 194 377 54 77 368 0 421 -17 377 0 33 56 378 75 104 374 0 172 -17 77 0 4
17 375 421 75 56 368 0 377 +17 378 0 33 377 409 102 101 376 0 390 -17 172 0 292
 104 372 75 375 169 0 0 +17 101 0 294 385 390 99 378 376 0 409 +15 566 1505 0 44
1 445 0 17 441 0 566 441 441 0 568 438 0 0 +17 568 0 569 568 568 0 441 438 0 0 -
15 569 1375 0 568 274 0 17 546 0 315 546 546 0 570 544 0 0 +15 315 1628 0 546 31
0 571 17 570 0 572 570 570 0 546 544 0 0 -15 572 1633 0 570 456 0 15 571 1721 0
 573 310 0 17 573 0 571 573 573 0 539 535 0 0 -17 539 0 574 539 539 0 573 535 0
 0 +15 574 1735 0 539 464 0 31 542 1835 0 540 575 541 0 +-.008509 .0602358292956
249 .1095116007794462 1 -2072166096042545e-31 38533559484497e-30 -16826329333197
45e-34 .182038750584418 .983291357271925 .0200025 16 540 1808 0 ?576 535 165 542
 0 0 1 31 575 1836 0 165 166 542 0 +-.014605 .0602358292956249 .1095116007794462
 -1 2072166096042545e-31 -38533559484497e-30 1682632933319745e-34 -.182038750584
418 -.983291357271925 .0200025 16 165 1801 0 ?577 540 29 575 0 0 1 30 166 12516
 0 29 578 575 0 -.010033 .0459648016511967 .1370313713085034 -1 2072166096042545
e-31 -38533559484497e-30 30 578 12517 0 154 158 166 0 +.010033 .0745068569400531
 .1370313713085034 -1 2072166096042545e-31 -38533559484497e-30 16 154 12433 0 ?1
48 29 151 578 0 0 1 30 158 12523 0 151 0 578 0 +-.023495 .0894273440012228 .1370
313713085034 0 1 0 17 577 0 579 577 577 0 308 165 0 0 +15 579 1822 0 577 468 0 1
7 308 0 298 308 308 0 577 165 0 0 -17 576 0 472 576 576 0 580 540 0 0 +15 472 18
21 0 576 468 579 17 580 0 307 580 580 0 576 540 0 0 -15 307 1797 0 580 297 581 1
5 581 193 0 582 297 0 17 582 0 581 582 582 0 175 170 0 0 -17 175 0 516 175 175 0
 582 170 0 0 +15 516 184 0 175 510 564 15 469 1734 0 533 464 574 17 530 0 465 53
0 530 0 528 531 0 0 -15 465 1688 0 530 460 562 83 3 519 .250980392156863 .250980
392156863 .250980392156863 83 3 513 .250980392156863 .250980392156863 .250980392
156863 83 3 507 .250980392156863 .250980392156863 .250980392156863 83 3 503 .250
980392156863 .250980392156863 .250980392156863 15 501 1045 0 325 274 569 17 325
 0 501 325 325 0 583 320 0 0 +17 583 0 161 583 583 0 325 320 0 0 -15 161 985 0 5
83 14 0 81 1 497 9294 479 225 0 414 493 413 584 83 3 498 .250980392156863 .25098
0392156863 .250980392156863 81 1 414 12752 299 225 497 0 412 416 585 81 1 413 92
95 479 306 0 412 497 586 587 83 3 584 .250980392156863 .250980392156863 .2509803
92156863 81 1 586 9296 479 297 0 305 413 300 588 83 3 587 .250980392156863 .2509
80392156863 .250980392156863 81 1 305 12748 299 297 586 0 301 309 589 81 1 300 9
297 479 295 0 296 586 590 591 83 3 588 .250980392156863 .250980392156863 .250980
392156863 81 1 590 9298 479 223 0 301 300 592 593 83 3 591 .250980392156863 .250
980392156863 .250980392156863 81 1 301 12747 299 223 590 0 296 305 594 81 1 592
 9299 479 217 0 221 590 418 595 83 3 593 .250980392156863 .250980392156863 .2509
80392156863 81 1 221 12739 299 217 592 0 0 270 596 81 1 418 9300 479 222 0 416 5
92 597 598 83 3 595 .250980392156863 .250980392156863 .250980392156863 81 1 597
 9301 479 287 0 293 418 599 600 83 3 598 .250980392156863 .250980392156863 .2509
80392156863 81 1 293 12745 299 287 597 0 291 296 601 81 1 599 9302 479 284 0 286
 597 602 603 83 3 600 .250980392156863 .250980392156863 .250980392156863 81 1 28
6 12743 299 284 599 0 282 291 604 81 1 602 9303 479 272 0 291 599 605 606 83 3 6
03 .250980392156863 .250980392156863 .250980392156863 81 1 291 12744 299 272 602
 0 286 293 607 81 1 605 9304 479 266 0 270 602 608 609 83 3 606 .250980392156863
 .250980392156863 .250980392156863 81 1 270 12740 299 266 605 0 221 277 610 81 1
 608 9305 479 271 0 277 605 491 611 83 3 609 .250980392156863 .250980392156863 .
250980392156863 81 1 277 12741 299 271 608 0 270 282 612 81 1 491 9306 479 278 0
 282 608 486 613 83 3 611 .250980392156863 .250980392156863 .250980392156863 81
 1 282 12742 299 278 491 0 277 286 614 83 3 613 .250980392156863 .25098039215686
3 .250980392156863 82 1 614 446693490 82 1 612 540475506 82 1 610 542244978 82 1
 607 544079986 82 1 604 446890098 82 1 601 544538738 82 1 596 542769266 82 1 594
 543555698 82 1 589 545259634 82 1 585 543293554 83 3 492 .250980392156863 .2509
80392156863 .250980392156863 81 1 487 9309 479 445 0 419 483 615 616 83 3 488 .2
50980392156863 .250980392156863 .250980392156863 81 1 419 12754 299 445 487 0 41
6 451 617 81 1 615 9310 479 448 0 451 487 618 619 83 3 616 .250980392156863 .250
980392156863 .250980392156863 81 1 451 12755 299 448 615 0 419 455 620 81 1 618
 9311 479 452 0 455 615 621 622 83 3 619 .250980392156863 .250980392156863 .2509
80392156863 81 1 455 12756 299 452 618 0 451 459 623 81 1 621 9312 479 456 0 459
 618 624 625 83 3 622 .250980392156863 .250980392156863 .250980392156863 81 1 45
9 12757 299 456 621 0 455 463 626 81 1 624 9313 479 460 0 463 621 627 628 83 3 6
25 .250980392156863 .250980392156863 .250980392156863 81 1 463 12758 299 460 624
 0 459 467 629 81 1 627 9314 479 464 0 467 624 480 630 83 3 628 .250980392156863
 .250980392156863 .250980392156863 81 1 467 12759 299 464 627 0 463 471 631 81 1
 480 9315 479 468 0 471 627 474 632 83 3 630 .250980392156863 .250980392156863 .
250980392156863 83 3 632 .250980392156863 .250980392156863 .250980392156863 82 1
 631 450887794 82 1 629 450756722 82 1 626 -2136473453 82 1 623 450494578 82 1 6
20 450363506 82 1 617 450232434 82 1 482 451018866 83 3 481 .752941176470588 .75
2941176470588 .752941176470588 79 14 478 SWEntUnchanged15 461 12405 0 30 456 572
 17 30 0 461 163 163 11 22 10 0 160 -17 163 0 461 30 30 144 160 164 0 0 -17 22 0
 26 148 24 144 30 10 0 153 +17 153 0 159 160 157 144 148 154 0 163 -40 3 435 0 1
 3 .000758636831300759 .2747829860971815 ??-.0220133914199209 .0781893928785294
 .1195441767036346 -.01722125198383775 .0799425794205018 .1199716888120352 -.015
5377275952 .0807576406728684 .119726399360272 41 1 436 L?-.0220133914199209 .078
1893928785294 .1195441767036346 41 1 437 L?-.0155377275952 .0807576406728684 .11
9726399360272 17 349 0 224 347 373 114 89 359 0 0 -16 249 1139 0 ?116 256 329 24
7 0 0 1 17 373 0 224 349 92 87 372 231 0 0 -17 89 0 303 354 344 87 349 359 0 355
 +82 1 420 542507122 82 1 415 543031410 16 335 1383 0 ?59 336 326 333 336 336 1
 82 1 313 -2135883629 82 1 302 544800882 141 276 434 633 633 267 141 633 319 276
 276 267 40 2 253 0 1 2 1249113721193032e-21 .0003076979185376075 ??-.0155375275
9520005 .0801391276073193 .1208847668276346 -.02272546794829595 .077974895708041
6 .1193966936721556 41 1 254 L?-.01553752759520005 .0801391276073193 .1208847668
276346 41 1 255 L?-.02272546794829595 .0779748957080416 .1193966936721556 40 3 2
44 0 1 3 115095806526473e-19 .000895593735787135 ??.003514821898125855 .06416553
26057879 .1391099323666956 -.01667271322037555 .0628256562039537 .13187252340016
24 -.03685625565299345 .0614837874526189 .124624352658796 41 1 245 L?.0035148218
98125855 .0641655326057879 .1391099323666956 41 1 246 L?-.03685625565299345 .061
4837874526189 .124624352658796 40 3 235 0 1 3 115095806526473e-19 .0008955937357
87024 ??-.03685625565299345 .0644808595095837 .1240694985470146 -.01667271322037
555 .0658227282609186 .131317669288381 .00351482189812586 .0671626046627528 .138
5550782549142 41 1 236 L?-.03685625565299345 .0644808595095837 .1240694985470146
 41 1 237 L?.00351482189812586 .0671626046627528 .1385550782549142 141 216 204 2
16 216 17 19 15 52 0 1 0 9 5 S0 141 18 213 18 18 6 51 13 1882 0 1 634 3 0 +.0100
33 .0602358292956249 .1095116007794462 -1 2072166096042545e-31 -38533559484497e-
30 .0310254 1682632933319745e-34 -.182038750584418 -.983291357271925 50 634 1662
 0 1 635 13 0 +-.0254 .0353226678221048 .1141238255836282 1 -2072166096042545e-3
1 38533559484497e-30 -1682632933319745e-34 .182038750584418 .983291357271925 50
 635 1660 0 1 0 634 0 +-.0254 .0353226678221048 .1141238255836282 1 -20721660960
42545e-31 38533559484497e-30 -1682632933319745e-34 .182038750584418 .98329135727
1925 74 4 CI16 index_map_offset0 0 1 dCCZ20 12 2 0 0 514 474 0 0 0 0 0 0 0 0 0 0
 0 0 0 0 0 0 0 0 1 0 
